# xmcd CD database file
#
# Track frame offsets:
#	182
#	12527
#	26965
#	54695
#	71010
#	103225
#	138497
#	162375
#
# Disc length: 2872 seconds
#
# Revision: 0
# Processed by: cddbd v1.4PL0 Copyright (c) Steve Scherf et al.
# Submitted via: CDex 1.51
#
DISCID=780b3608
DTITLE=Clifford Brown - Clifford Brown Big Band
DYEAR=1953
DGENRE=Jazz
TTITLE0=Quick Step
TTITLE1=Bum's Rush
TTITLE2=Chez Moi
TTITLE3=No Start No End
TTITLE4=All Weird
TTITLE5=Brown Skins
TTITLE6=Deltitnu
TTITLE7=Keeping Up With Jonesy
EXTD=YEAR: 1953
EXTT0=
EXTT1=
EXTT2=
EXTT3=
EXTT4=
EXTT5=
EXTT6=
EXTT7=
PLAYORDER=
